<svg xmlns="http://www.w3.org/2000/svg" viewBox="0 0 128 128" width="128" height="128">
  <defs>
    <linearGradient id="g7" x1="50%" y1="0%" x2="50%" y2="100%">
      <stop offset="0%" stop-color="#0FA968"/>
      <stop offset="100%" stop-color="#087F50"/>
    </linearGradient>
  </defs>
  <rect width="128" height="128" rx="28" fill="#F0F4F0"/>
  <!-- Concentric ripples that break into spiral -->
  <circle cx="64" cy="64" r="50" fill="none" stroke="#0FA968" stroke-width="3" opacity="0.2"/>
  <path d="M 64 24 A 40 40 0 1 1 24 64" fill="none" stroke="#0FA968" stroke-width="3" opacity="0.35" stroke-linecap="round"/>
  <path d="M 24 64 C 24 64, 24 42, 40 32 C 52 24, 64 28, 72 36" fill="none" stroke="#0FA968" stroke-width="3" opacity="0.35" stroke-linecap="round"/>
  <path d="M 64 34 A 30 30 0 1 1 34 64" fill="none" stroke="#0FA968" stroke-width="3.5" opacity="0.5" stroke-linecap="round"/>
  <path d="M 34 64 C 34 64, 34 48, 46 40 C 54 35, 64 38, 68 44" fill="none" stroke="#0FA968" stroke-width="3.5" opacity="0.5" stroke-linecap="round"/>
  <path d="M 64 44 A 20 20 0 1 1 44 64" fill="none" stroke="url(#g7)" stroke-width="4" opacity="0.7" stroke-linecap="round"/>
  <path d="M 44 64 C 44 64, 44 54, 52 50 C 56 48, 62 50, 64 54" fill="none" stroke="url(#g7)" stroke-width="4" opacity="0.7" stroke-linecap="round"/>
  <circle cx="64" cy="54" r="8" fill="none" stroke="url(#g7)" stroke-width="4.5" opacity="0.9"/>
  <circle cx="64" cy="60" r="3" fill="#0FA968"/>
</svg>